<svg width="608" height="127" viewBox="0 0 608 127" fill="none" xmlns="http://www.w3.org/2000/svg">
<g clip-path="url(#clip0_20_90)" filter="url(#filter0_d_20_90)">
<path d="M68.7688 73.7287C68.7688 49.3268 79.4306 29.6309 100.932 29.6309C122.611 29.6309 131.674 48.6292 131.674 73.3799V80.1777H88.1381C88.3157 92.5524 93.6469 101.965 105.02 101.965C109.817 101.965 115.326 98.8275 119.235 93.5988L129.009 104.579C122.256 113.12 112.661 118 102.887 118C80.4969 118 68.7688 99.5248 68.7688 73.7287ZM100.399 45.6662C90.6262 45.6662 88.1381 57.5189 88.1381 66.4082H112.305C112.305 56.9955 110.173 45.6662 100.399 45.6662Z" fill="black"/>
<path d="M174.144 115.909V107.891C170.412 114.514 162.415 118 156.196 118C142.691 118 132.917 107.194 132.917 89.9385C132.917 72.8568 142.691 62.5737 156.196 62.5737C162.415 62.5737 170.589 65.7109 174.144 71.9857V61.7018C174.144 52.1156 170.234 46.3635 161.172 46.3635C155.485 46.3635 149.443 48.9777 143.757 54.7294L136.294 40.786C144.112 32.5939 156.374 29.6309 165.259 29.6309C182.851 29.6309 194.224 38.3457 194.224 57.17V115.909H174.144ZM174.144 96.0388V84.7092C172.011 79.4801 167.746 75.9944 163.304 75.9944C156.373 75.9944 152.998 82.2689 152.998 90.2863C152.998 98.3045 156.373 104.753 163.304 104.753C167.746 104.753 172.011 101.441 174.144 96.0384V96.0388Z" fill="black"/>
<path d="M203.463 118V33.8139H223.543V45.492C226.92 37.823 235.272 31.7221 242.735 31.7221V51.0691C241.491 50.7203 240.069 50.5464 238.825 50.5464C232.961 50.5464 226.92 55.2521 223.543 61.3527V118H203.463V118Z" fill="black"/>
<path d="M372.548 73.7287C372.548 49.3268 383.21 29.6309 404.711 29.6309C426.39 29.6309 435.453 48.6292 435.453 73.3799V80.1777H391.917C392.094 92.5524 397.426 101.965 408.798 101.965C413.596 101.965 419.105 98.8275 423.014 93.5988L432.787 104.579C426.035 113.12 416.44 118 406.666 118C384.276 118 372.548 99.5248 372.548 73.7287ZM404.178 45.6662C394.405 45.6662 391.917 57.5189 391.917 66.4082H416.084C416.084 56.9955 413.951 45.6662 404.178 45.6662Z" fill="black"/>
<path d="M440.605 118V33.8139H460.685V45.492C464.061 37.823 472.413 31.7221 479.876 31.7221V51.0691C478.632 50.7203 477.211 50.5464 475.967 50.5464C470.103 50.5464 464.061 55.2521 460.685 61.3527V118H440.605L440.605 118Z" fill="black"/>
<path d="M483.253 118V1.74302H503.333V118H483.253Z" fill="black"/>
<path d="M510.084 12.0269C510.084 5.40328 515.771 0 522.346 0C529.098 0 534.607 5.40328 534.607 12.0269C534.607 18.6505 529.098 23.8792 522.346 23.8792C515.771 23.8792 510.084 18.6505 510.084 12.0269ZM512.394 118V33.8142H532.475V118H512.394Z" fill="black"/>
<path d="M579.742 118V58.0416C579.742 52.1156 577.61 49.1522 573.167 49.1522C568.014 49.1522 563.572 54.7291 561.617 60.1327V118H541.537V33.8136H561.617V44.794C564.993 37.9969 573.878 31.7217 581.697 31.7217C594.669 31.7217 600 39.2165 600 50.8946V118H579.742L579.742 118Z" fill="black"/>
<path d="M259.839 101.268L257.914 98.2622C255.419 100.709 252.426 102.107 248.862 102.107C242.732 102.107 238.17 97.4229 238.17 89.1037C238.17 82.1822 241.662 78.4073 245.369 75.3314C243.872 71.6261 242.803 68.2004 242.803 65.4739C242.803 58.6927 246.795 53.9389 252.354 53.9389C257.415 53.9389 261.478 58.2036 261.478 63.8664C261.478 70.4377 257.416 73.6539 253.423 76.9397C254.279 78.6172 255.134 80.2955 255.918 81.6235L258.128 85.6087C259.055 82.8823 259.767 79.946 260.338 77.6383L266.753 80.505C265.613 84.8397 264.187 88.8938 262.334 92.3199C264.045 95.0463 265.969 97.8427 268.322 101.268H259.839V101.268ZM254.707 93.0882C253.353 90.8509 252.141 88.7539 251.143 86.7965C250.216 85.1889 249.289 83.5106 248.434 81.7628C247.009 83.6506 246.153 85.8176 246.153 88.6843C246.153 92.8087 248.078 95.8153 250.573 95.8153C252.141 95.8153 253.495 94.7665 254.707 93.0886V93.0882ZM250.929 70.9264C253.067 69.0386 254.635 66.9416 254.635 64.0752C254.635 61.1389 253.566 59.6709 252.354 59.6709C250.644 59.6709 249.859 61.5584 249.859 65.4733C249.859 67.0815 250.287 68.969 250.929 70.9264H250.929Z" fill="black"/>
<path d="M46.7349 58.0415C57.0412 55.0786 64.1492 46.0147 64.1492 31.3733C64.1492 15.338 55.442 1.74267 35.7175 1.74267H0.000244141V21.2792C3.68846 19.8486 7.97259 18.7859 12.9277 18.4004C12.9277 18.4004 14.9126 8.92291 24.3989 11.8239C24.3989 11.8239 27.5897 12.5177 28.7487 16.8084C28.7487 16.8084 44.1691 16.2133 47.9582 25.1082L57.904 24.8113C57.904 24.8113 59.072 26.8221 59.2342 29.5471C59.2593 29.9472 59.2622 30.3615 59.2347 30.7879C59.0365 34.0318 57.1889 37.9317 50.6723 40.6845C50.1816 40.893 49.6618 41.0953 49.1159 41.2893C47.0698 42.016 44.9391 42.8338 42.8247 43.76L42.8252 43.7607C42.8252 43.7607 42.821 43.7621 42.8191 43.7625C41.9644 44.1369 41.1126 44.5287 40.2704 44.9402C35.9678 47.4851 28.7279 54.7336 39.2487 72.0931C40.0417 72.9829 40.7001 74.0155 41.2261 75.1679C41.2261 75.1679 41.2303 75.1776 41.2386 75.1963C42.2034 77.3224 42.7219 79.848 42.8106 82.6197C43.3119 91.1436 40.1633 105.533 18.0097 118H36.9612C57.3965 118 65.7484 104.404 65.7484 86.6257C65.7484 72.3331 57.9299 59.7839 46.7349 58.0412V58.0415Z" fill="black"/>
<path d="M337.719 1.74302L320.127 24.6184L303.067 1.74302H274.636V118H297.026L297.566 76.036L316.395 118H323.858L335.732 76.6602C333.389 76.9317 327.314 77.9955 321.615 82.0073C314.362 87.1134 318.303 109.32 318.303 109.32C313.169 105.298 313.906 90.6067 313.914 90.3653C313.921 90.1235 314.106 83.1151 311.523 81.5872C308.941 80.0596 309.068 84.175 309.068 84.175C307.445 79.2896 301.441 73.6698 298.646 71.8537C298.054 71.4692 297.724 71.7713 297.566 72.4786L297.6 72.56L296.23 79.3076C294.102 73.6501 294.683 65.811 294.683 65.811C291.243 58.2109 293.375 46.5845 294.146 44.1889C294.916 41.7933 286.316 41.2965 286.316 41.2965C290.622 37.2317 296.424 40.1448 296.424 40.1448L300.145 34.5313C308.225 27.2734 306.556 12.2015 306.556 12.2015C310.572 13.4675 316.444 27.1137 316.444 27.1137C319.592 27.7445 324.254 32.0941 324.598 32.5149C327.976 36.6463 346.18 26.0583 356.977 26.139C339.714 31.2437 328.864 39.3602 328.864 39.3602C332.515 38.716 336.787 41.2612 336.787 41.2612C334.173 41.1296 327.704 44.7812 327.704 44.7812C327.704 44.7812 321.742 49.119 318.649 49.7934C315.556 50.4675 316.524 52.9552 316.524 52.9552C318.465 61.9211 314.564 64.466 314.564 64.466C316.003 62.2914 314.017 56.1863 312.529 54.1267C311.04 52.0671 311.73 51.2811 311.73 51.2811C299.246 54.4585 312.27 71.7747 312.27 71.7747C314.582 70.755 315.863 72.365 315.863 72.365L314.414 74.136L317.304 78.0107C327.274 72.9001 333.704 75.0311 335.894 76.0983L343.584 49.3272V118.001H365.618V1.74406H337.72L337.719 1.74302Z" fill="black"/>
</g>
<defs>
<filter id="filter0_d_20_90" x="-0.00012207" y="0" width="608" height="127" filterUnits="userSpaceOnUse" color-interpolation-filters="sRGB">
<feFlood flood-opacity="0" result="BackgroundImageFix"/>
<feColorMatrix in="SourceAlpha" type="matrix" values="0 0 0 0 0 0 0 0 0 0 0 0 0 0 0 0 0 0 127 0" result="hardAlpha"/>
<feOffset dx="4" dy="5"/>
<feGaussianBlur stdDeviation="2"/>
<feComposite in2="hardAlpha" operator="out"/>
<feColorMatrix type="matrix" values="0 0 0 0 0 0 0 0 0 0 0 0 0 0 0 0 0 0 0.25 0"/>
<feBlend mode="normal" in2="BackgroundImageFix" result="effect1_dropShadow_20_90"/>
<feBlend mode="normal" in="SourceGraphic" in2="effect1_dropShadow_20_90" result="shape"/>
</filter>
<clipPath id="clip0_20_90">
<rect width="600" height="118" fill="white"/>
</clipPath>
</defs>
</svg>
